<svg xmlns="http://www.w3.org/2000/svg" xmlns:xlink="http://www.w3.org/1999/xlink" viewBox="0 0 812.32 228.07"><defs><style>.cls-1{fill:url(#linear-gradient);}</style><linearGradient id="linear-gradient" x1="406.16" y1="195.77" x2="406.16" y2="-67.21" gradientUnits="userSpaceOnUse"><stop offset="0" stop-color="#00715d"/><stop offset="1" stop-color="#00c2a4"/></linearGradient></defs><g id="图层_2" data-name="图层 2"><g id="OBJECTS"><path id="shrub" class="cls-1" d="M812.32,228.07H0V47.94a27.87,27.87,0,0,1,32.73-2.43c10,6.39,16,19.78,14.36,32.41C48,67.69,55.21,58.49,64.3,56.06s19.37,2.1,24.42,10.76c-7-10.83-4.58-27.52,5-35.5s24.87-5.93,32.44,4.38c-1-13.87,10.61-27.17,23.25-26.78s23.49,14.41,21.82,28.19c4.3-12.62,20.13-18.42,30.46-11.16S213.89,51.46,205.26,61c12.89-5.87,27.66,13.94,19.89,26.68,12.15-7.79,29-5.29,38.83,5.76.22-11.45-6.23-17,10.79-30,12.55-3.35,16.66,0,21.9,13-4.1-13.73,3.86-30.31,16.47-34.35s27.43,5.26,30.67,19.25C344,49.71,357.1,40.91,366.64,46s11.26,21.88,3,29.22c4.7-7.62,15.28-9.84,22.21-4.66S400.79,87.4,396.07,95c6.64-7.23,17.54-9.22,25.95-4.73s13.74,15.12,12.69,25.33c8.65-9.22,25.51-5.2,29.9,7.14-7.32-5.77-8.88-18.61-3.19-26.3s17.44-8.62,24.07-1.91c-3.47-10.67,1.2-23.77,10.34-29s21.58-1.95,27.56,7.28c-7.26-12.75-3.67-31.52,7.65-40s28.52-5.19,36.62,6.94C579,24.51,605.82,31.28,610,50.47c.57-11.13,9.31-21.06,19.41-22.08s20.32,7,22.73,17.85C651,34.5,658.23,22.43,668.5,19S690.93,21,696,31.46c.56-13.29,9.14-25.73,20.63-29.89s25.12.2,32.76,10.51c15.41-14.71,57.55-.72,62.55,36.43Z"/></g></g></svg>