<svg xmlns="http://www.w3.org/2000/svg" xmlns:xlink="http://www.w3.org/1999/xlink" viewBox="0 0 704 704.95"><defs><style>.cls-1{isolation:isolate;}.cls-2{mix-blend-mode:multiply;opacity:0.3;}.cls-3{fill:url(#linear-gradient);}.cls-4{fill:url(#linear-gradient-2);}.cls-5{fill:url(#linear-gradient-3);}.cls-6{fill:url(#linear-gradient-4);}.cls-7{fill:url(#linear-gradient-5);}</style><linearGradient id="linear-gradient" x1="638.33" y1="620.38" x2="638.33" y2="113.68" gradientUnits="userSpaceOnUse"><stop offset="0" stop-color="#006182"/><stop offset="0.09" stop-color="#126f83" stop-opacity="0.91"/><stop offset="1" stop-color="#c4fa8f" stop-opacity="0"/></linearGradient><linearGradient id="linear-gradient-2" x1="390.66" y1="620.38" x2="390.66" y2="113.68" xlink:href="#linear-gradient"/><linearGradient id="linear-gradient-3" x1="80.8" y1="620.38" x2="80.8" y2="113.68" xlink:href="#linear-gradient"/><linearGradient id="linear-gradient-4" x1="495.18" y1="620.38" x2="495.18" y2="113.68" xlink:href="#linear-gradient"/><linearGradient id="linear-gradient-5" x1="225.44" y1="620.38" x2="225.44" y2="113.68" xlink:href="#linear-gradient"/></defs><g class="cls-1"><g id="图层_2" data-name="图层 2"><g id="OBJECTS"><g class="cls-2"><path class="cls-3" d="M572.67,34.12,577.86,30a603.42,603.42,0,0,0,43.7,180.56q-3.87-101.47-7.73-202.95L625.74,0q19.85,177.41,39.7,354.8a566.17,566.17,0,0,0,32-183.26l5.61-1a727.18,727.18,0,0,1-32,234.8L704,699.42,640.4,705Q632,483.8,623.55,262.65A713.62,713.62,0,0,1,572.67,34.12Z"/><path class="cls-4" d="M331.9,177.37c5.52,17.3,36.6,114.74,42.13,132l-1.86-145.89Q360.59,130.72,349,97.92l2.15-6.47,20.7,49.74q-.56-44.49-1.13-89l8.34-2q6.09,40,10.76,80.18a434.47,434.47,0,0,0,16.42-62l7.59-6.57a354.19,354.19,0,0,1-21.75,89q10,93.53,12.26,187.79C409.4,320,442,202,444.61,182.77l7.32,8.77C448.89,224,414,355,405,386q.27,86.7-6,173.22l-21.82-4.68q-1.31-102.8-2.62-205.57c-9.59-24.65-41.77-130.84-45.15-157.39Z"/><path class="cls-5" d="M0,113l6.22-4.3A1538.86,1538.86,0,0,0,53.56,293.82q7.8-119.13,25.87-237.08l27.44-.9q-9.6,66-15.63,132.56a480,480,0,0,0,63.5-127.22l6.85,7.19c-13.32,55.25-38.55,107-72.88,149.89-6.11,77.66-8.58,155.67-7.41,233.61C98.41,399.12,121,328.3,125.83,272.54l7.73,3.06c-5.91,66.9-30.81,148.72-51.47,212q2.28,78,9.43,155.63L52.15,630.78a2754.39,2754.39,0,0,1-.55-304.1A1706.08,1706.08,0,0,1,0,113Z"/><path class="cls-6" d="M416.05,315.73l4.6-5.33c10.46,54.77,42.66,147.06,69.18,194.82l2-337.93a846.36,846.36,0,0,1-23-96.47l3.38-11.27q9.92,33.36,19.84,66.73l.69-117.61,11.56-4q10.05,93.5,14.86,187.54A1034.17,1034.17,0,0,0,566,13l8.29,1a797.28,797.28,0,0,1-53.73,207.84q2.73,64.1,3,128.3a665.34,665.34,0,0,0,29.64-142.89l10.32,6.27a577,577,0,0,1-40,176.4q-1,133.13-12.43,265.82l-22.46,46.18q.46-80.11.95-160.22l-2.52,4.67C458,492.45,423.75,377.81,416.05,315.73Z"/><path class="cls-7" d="M169,92.69l6.82-5.22A1309.63,1309.63,0,0,0,230,282.74q-.9-122,7.36-243.85l9.51-2a4327.59,4327.59,0,0,0,35,604.84L241,620.62c-8.64-85-8.33-203.83-10.23-289.29A1171.3,1171.3,0,0,1,169,92.69Z"/></g></g></g></g></svg>