<svg xmlns="http://www.w3.org/2000/svg" xmlns:xlink="http://www.w3.org/1999/xlink" viewBox="0 0 658.55 704.95"><defs><style>.cls-1{fill:url(#未命名的渐变_13);}</style><linearGradient id="未命名的渐变_13" x1="2.36" y1="555.37" x2="643.03" y2="72.3" gradientUnits="userSpaceOnUse"><stop offset="0" stop-color="#007272"/><stop offset="1" stop-color="#00a870"/></linearGradient></defs><g id="图层_2" data-name="图层 2"><g id="OBJECTS"><path class="cls-1" d="M80.45,262.65Q72,483.79,63.6,705L0,699.42,32.91,405.3A726.63,726.63,0,0,1,.9,170.5l5.6,1A566.45,566.45,0,0,0,38.56,354.8Q58.41,177.4,78.26,0L90.17,7.59q-3.87,101.48-7.73,203A603.73,603.73,0,0,0,126.14,30l5.19,4.14A713.89,713.89,0,0,1,80.45,262.65Zm369-119.28C431,237.55,383.21,309.67,371,328.29l2.19-171.72,27.24-77.2-2.53-7.62-24.37,58.54q.66-52.36,1.33-104.72l-9.81-2.38q-7.19,47-12.67,94.38a510.76,510.76,0,0,1-19.33-73l-8.93-7.73a415.8,415.8,0,0,0,25.6,104.77Q338,251.67,335.29,362.62C329.37,340.71,276,214.9,279.08,105.24l-8.62,10.32c0,101,53.52,266.38,64.07,302.94q-.31,102,7.12,203.89l25.69-5.51q1.55-121,3.08-242c22.24-35.39,74.56-147.62,82-214.78ZM658.55,80.31,652.33,76A1541.23,1541.23,0,0,1,605,261.1Q597.19,142,579.12,24l-27.44-.9q9.6,66,15.63,132.56a480,480,0,0,1-63.5-127.22L497,35.65c13.33,55.25,38.56,107,72.89,149.89,6.11,77.66,8.58,155.67,7.41,233.61-45-21.45-84.87-113.38-89.74-169.14l-7.72,3.06c5.91,66.9,40.57,163.78,96.67,201.78q-2.3,78-9.43,155.63l39.37-12.42A2754.39,2754.39,0,0,0,607,294,1706.08,1706.08,0,0,0,658.55,80.31ZM523.17,93l-6.81-5.23A1309.42,1309.42,0,0,1,462.16,283q.88-122-7.37-243.85l-9.51-2a4327.68,4327.68,0,0,1-35,604.84l40.93-21.06c8.63-85,8.32-203.84,10.22-289.29A1171.47,1171.47,0,0,0,523.17,93Z"/></g></g></svg>